<svg width="29" height="28" viewBox="0 0 29 28" fill="none" xmlns="http://www.w3.org/2000/svg">
<rect x="1" y="0.5" width="27" height="27" rx="13.5" stroke="#6A0BFF"/>
<path fill-rule="evenodd" clip-rule="evenodd" d="M13.274 8.55806C13.5181 8.80214 13.5181 9.19786 13.274 9.44194L9.34091 13.375H21.1654C21.5105 13.375 21.7904 13.6548 21.7904 14C21.7904 14.3452 21.5105 14.625 21.1654 14.625H9.34091L13.274 18.5581C13.5181 18.8021 13.5181 19.1979 13.274 19.4419C13.0299 19.686 12.6342 19.686 12.3901 19.4419L7.39009 14.4419C7.14601 14.1979 7.14601 13.8021 7.39009 13.5581L12.3901 8.55806C12.6342 8.31398 13.0299 8.31398 13.274 8.55806Z" fill="#6A0BFF"/>
</svg>
