<svg width="20" height="21" viewBox="0 0 20 21" fill="none" xmlns="http://www.w3.org/2000/svg">
<path d="M12.9427 16.3082C13.0007 16.3662 13.0468 16.4352 13.0782 16.511C13.1097 16.5869 13.1258 16.6682 13.1258 16.7503C13.1258 16.8325 13.1097 16.9138 13.0782 16.9897C13.0468 17.0655 13.0007 17.1345 12.9427 17.1925C12.8846 17.2506 12.8157 17.2967 12.7398 17.3281C12.6639 17.3595 12.5826 17.3757 12.5005 17.3757C12.4184 17.3757 12.3371 17.3595 12.2612 17.3281C12.1853 17.2967 12.1164 17.2506 12.0583 17.1925L5.8083 10.9425C5.75019 10.8845 5.70409 10.8156 5.67264 10.7397C5.64119 10.6638 5.625 10.5825 5.625 10.5003C5.625 10.4182 5.64119 10.3369 5.67264 10.261C5.70409 10.1851 5.75019 10.1162 5.8083 10.0582L12.0583 3.80816C12.1756 3.69088 12.3346 3.625 12.5005 3.625C12.6663 3.625 12.8254 3.69088 12.9427 3.80816C13.06 3.92544 13.1258 4.0845 13.1258 4.25035C13.1258 4.4162 13.06 4.57526 12.9427 4.69253L7.13409 10.5003L12.9427 16.3082Z" fill="#6A0BFF"/>
</svg>
