<svg width="20" height="20" viewBox="0 0 20 20" fill="none" xmlns="http://www.w3.org/2000/svg">
<path d="M10.0234 10.0013C10.0234 8.16035 11.5158 6.66797 13.3568 6.66797C15.1977 6.66797 16.6901 8.16039 16.6901 10.0013C16.6901 11.8423 15.1977 13.3346 13.3568 13.3346C11.5158 13.3346 10.0234 11.8422 10.0234 10.0013Z" fill="#00BCFF"/>
<path d="M3.35547 16.6657C3.35547 14.8248 4.84785 13.3324 6.68879 13.3324L8.46516 12.3945L10.0221 13.3324V16.6657C10.0221 18.5067 8.52973 19.999 6.68879 19.999C4.84785 19.999 3.35547 18.5066 3.35547 16.6657Z" fill="#00CF7F"/>
<path d="M10.0209 0L8.20703 3.15117L10.0209 6.66664H13.3074C15.1484 6.66664 16.6407 5.17426 16.6407 3.33332C16.6407 1.49238 15.1484 0 13.3074 0H10.0209Z" fill="#FF7361"/>
<path d="M3.30859 3.33332C3.30859 5.17426 4.80098 6.66664 6.64191 6.66664L8.41016 7.34961L10.022 6.66664V0H6.64187C4.80098 0 3.30859 1.49238 3.30859 3.33332Z" fill="#FF4D12"/>
<path d="M3.35547 10.0013C3.35547 11.8423 4.84785 13.3346 6.68879 13.3346H10.0221V6.66797H6.68879C4.84785 6.66797 3.35547 8.16039 3.35547 10.0013Z" fill="#B659FF"/>
</svg>
